<svg xmlns="http://www.w3.org/2000/svg" width="24" height="24" viewBox="0 0 24 24">
  <path d="M8.2,8.2c0-0.3,0-0.6,0.1-0.8c0.2-0.4,0.4-0.8,0.7-1.1c0.1-0.1,0.1-0.1,0.1-0.2c0-0.1-0.1-0.1-0.1-0.1c-0.1,0-0.3,0-0.4,0
  c-0.6,0.2-0.9,0.7-1,1.3c-0.1,0.3-0.1,0.6-0.1,0.9v0.3v0.5c0,0.4-0.1,0.7-0.3,1c-0.1,0.1-0.2,0.3-0.3,0.4c-0.1,0.1-0.1,0.1-0.1,0.2
  c0,0.1,0.1,0.1,0.1,0.1c0.1,0,0.2,0,0.3,0c0.2-0.1,0.3-0.2,0.4-0.3c0.2-0.2,0.3-0.4,0.4-0.7c0.1-0.3,0.1-0.6,0.1-0.9V8.7V8.2z M12.3,8.2
  c0-0.3,0-0.6,0.1-0.8c0.2-0.4,0.4-0.8,0.7-1.1c0.1-0.1,0.1-0.1,0.1-0.2c0-0.1-0.1-0.1-0.1-0.1c-0.1,0-0.3,0-0.4,0c-0.6,0.2-0.9,0.7-1,1.3
  c-0.1,0.3-0.1,0.6-0.1,0.9v0.3v0.5c0,0.4-0.1,0.7-0.3,1c-0.1,0.1-0.2,0.3-0.3,0.4c-0.1,0.1-0.1,0.1-0.1,0.2c0,0.1,0.1,0.1,0.1,0.1
  c0.1,0,0.2,0,0.3,0c0.2-0.1,0.3-0.2,0.4-0.3c0.2-0.2,0.3-0.4,0.4-0.7c0.1-0.3,0.1-0.6,0.1-0.9V8.7V8.2z" fill="#FF9900"/>
  <path d="M17.5,11.4c-1.1,0-2.2,0.1-3.2,0.5c-0.1,0-0.2,0.1-0.2,0.2c0,0.1,0.1,0.1,0.1,0.1c1.1,0.3,2.1,0.8,2.9,1.6
  c0.1,0.1,0.2,0.1,0.3,0.1c0.9-0.4,1.9-0.6,2.9-0.7c0.1,0,0.1,0,0.1-0.1c0,0,0-0.1-0.1-0.1C19.5,11.6,18.5,11.4,17.5,11.4z
  M14.3,14c-0.2,0.3-0.5,0.5-0.7,0.7c-0.1,0.1-0.1,0.2-0.1,0.3c0.3,0.6,0.7,1.2,1.2,1.7c0.1,0.1,0.2,0.1,0.3,0c0.3-0.3,0.5-0.6,0.8-0.9
  c0.1-0.1,0-0.2,0-0.3C15.3,14.9,14.8,14.5,14.3,14C14.3,14,14.3,14,14.3,14z" fill="#FF9900"/>
</svg> 