<svg xmlns="http://www.w3.org/2000/svg" width="24" height="24" viewBox="0 0 24 24">
  <path d="M2.2,12.5c-0.3,0-0.5-0.2-0.5-0.5c0-0.1,0-0.1,0-0.2l3-10.5c0.1-0.3,0.4-0.4,0.7-0.3c0.1,0,0.2,0.1,0.3,0.3l3,10.5
  c0.1,0.3-0.1,0.6-0.4,0.7c-0.1,0-0.1,0-0.2,0H2.2z M18.9,12.5c-0.3,0-0.5-0.2-0.5-0.5c0-0.1,0-0.1,0-0.2l3-10.5
  c0.1-0.3,0.4-0.4,0.7-0.3c0.1,0,0.2,0.1,0.3,0.3l3,10.5c0.1,0.3-0.1,0.6-0.4,0.7c-0.1,0-0.1,0-0.2,0H18.9z M10.5,4.5
  C9.1,4.5,7.9,5.6,7.9,7c0,1.4,1.1,2.5,2.5,2.5c1.4,0,2.5-1.1,2.5-2.5C13,5.6,11.9,4.5,10.5,4.5z M14,17.5h-4c-0.3,0-0.5-0.2-0.5-0.5
  c0-0.1,0-0.1,0-0.2l1.5-5.3h2l1.5,5.3c0.1,0.3-0.1,0.6-0.4,0.7C14.1,17.5,14.1,17.5,14,17.5z" fill="#2684FF"/>
</svg> 