<svg xmlns="http://www.w3.org/2000/svg" width="24" height="24" viewBox="0 0 24 24">
  <path d="M17.9,7.9c0.1-0.1,0.1-0.1,0.2-0.1l3.5-1.5c0.1-0.1,0.1-0.1,0.1-0.2s0-0.1-0.1-0.2L18.5,3c-0.1-0.1-0.1-0.1-0.2-0.1
  l-3.5,1.5c-0.1,0-0.1,0.1-0.1,0.2c0,0.1,0,0.1,0.1,0.2l3.1,2.9C17.8,7.8,17.9,7.9,17.9,7.9z M13.3,9.9c0.1-0.1,0.1-0.1,0.1-0.2V6.4
  c0-0.1-0.1-0.2-0.1-0.2L10,3.9C9.9,3.8,9.8,3.8,9.7,3.9L6.4,6.2c-0.1,0.1-0.1,0.1-0.1,0.2v3.3c0,0.1,0.1,0.2,0.1,0.2l3.3,2.3
  c0.1,0.1,0.2,0.1,0.3,0L13.3,9.9z M8.1,16.1c0,0.1,0,0.1,0.1,0.2c0,0,0.1,0.1,0.2,0.1l3.5-1.5c0.1,0,0.1-0.1,0.1-0.2V12
  c0-0.1-0.1-0.2-0.1-0.2l-3.5-2.4c0-0.1-0.1-0.1-0.2,0S8,9.5,8,9.6v3.8c0,0.1,0,0.1,0.1,0.2l0.1,0.1V16.1z" fill="#00AD9F"/>
</svg> 